<svg viewBox="50 90 1330 460" xmlns="http://www.w3.org/2000/svg">
  <defs>
    <linearGradient id="textGradient" x1="0%" y1="0%" x2="100%" y2="0%">
      <stop offset="0%" stop-color="#ffb84d"/> 
      <stop offset="50%" stop-color="#2a9d8f"/> 
      <stop offset="100%" stop-color="#ffb84d"/> 
    </linearGradient>
  </defs>
  <g transform="translate(680, 250) scale(0.3)">
    <path d="M150 0C90 0 40 50 40 120c0 70 50 120 80 190s30 90 30 90 0-30 30-90c30-70 80-120 80-190C260 50 210 0 150 0z" fill="#b22222"/>
  </g>
  <g transform="translate(725, 290) scale(0.3)">
    <circle r="18" fill="none" stroke="white" stroke-width="5"/>
    <circle r="34" fill="none" stroke="white" stroke-width="3.5"/>
    <circle r="50" fill="none" stroke="white" stroke-width="2"/>
  </g>
  <g transform="translate(725, 370)">
    <ellipse rx="40" ry="6" fill="none" stroke="#000" stroke-width="2"/>
    <ellipse rx="25" ry="4" fill="none" stroke="#000" stroke-width="1.5" transform="translate(0, 8)"/>
    <ellipse rx="12" ry="2" fill="none" stroke="#000" stroke-width="1" transform="translate(0, 14)"/>
  </g>
  <text x="700" y="370" text-anchor="middle" font-size="90" font-family="Arial, sans-serif" fill="url(#textGradient)" letter-spacing="0.05em">
    Grubana
  </text>
</svg>